{
  "accessors": [
    {
      "bufferView": 2,
      "componentType": 5126,
      "count": 3946,
      "max": [
        4.852972030639648,
        3.2943787574768066,
        0.8525062799453735
      ],
      "min": [
        -4.877384662628174,
        -3.0462615489959717,
        -0.03399539738893509
      ],
      "type": "VEC3"
    },
    {
      "bufferView": 2,
      "byteOffset": 47352,
      "componentType": 5126,
      "count": 3946,
      "max": [
        0.9991199970245361,
        0.99961918592453,
        0.9999956488609314
      ],
      "min": [
        -0.9999167323112488,
        -0.9971233010292053,
        -0.99997878074646
      ],
      "type": "VEC3"
    },
    {
      "bufferView": 1,
      "componentType": 5126,
      "count": 3946,
      "max": [
        0.9995196461677551,
        0.9976789355278015
      ],
      "min": [
        -0.00032219558488577604,
        0.0
      ],
      "type": "VEC2"
    },
    {
      "bufferView": 0,
      "componentType": 5125,
      "count": 19044,
      "type": "SCALAR"
    },
    {
      "bufferView": 2,
      "byteOffset": 94704,
      "componentType": 5126,
      "count": 1211,
      "max": [
        4.851459503173828,
        3.292879819869995,
        0.8533827066421509
      ],
      "min": [
        -4.875884056091309,
        -3.044762372970581,
        0.29024529457092285
      ],
      "type": "VEC3"
    },
    {
      "bufferView": 2,
      "byteOffset": 109236,
      "componentType": 5126,
      "count": 1211,
      "max": [
        0.8483463525772095,
        0.9541214108467102,
        0.7425752282142639
      ],
      "min": [
        -0.8836884498596191,
        -0.9506924152374268,
        -0.999991774559021
      ],
      "type": "VEC3"
    },
    {
      "bufferView": 1,
      "byteOffset": 31568,
      "componentType": 5126,
      "count": 1211,
      "max": [
        0.9909369349479675,
        0.9914504289627075
      ],
      "min": [
        0.006255564279854298,
        0.04253053292632103
      ],
      "type": "VEC2"
    },
    {
      "bufferView": 0,
      "byteOffset": 76176,
      "componentType": 5125,
      "count": 5616,
      "type": "SCALAR"
    }
  ],
  "asset": {
    "extras": {
      "author": "Endreius (https://sketchfab.com/Endrei)",
      "license": "CC-BY-4.0 (http://creativecommons.org/licenses/by/4.0/)",
      "source": "https://sketchfab.com/3d-models/speed-stacks-timer-c47a8d95a41341c28fcf70d54fb046bc",
      "title": "Speed Stacks Timer"
    },
    "generator": "Sketchfab-14.71.0",
    "version": "2.0"
  },
  "bufferViews": [
    {
      "buffer": 0,
      "byteLength": 98640,
      "name": "floatBufferViews",
      "target": 34963
    },
    {
      "buffer": 0,
      "byteLength": 41256,
      "byteOffset": 98640,
      "byteStride": 8,
      "name": "floatBufferViews",
      "target": 34962
    },
    {
      "buffer": 0,
      "byteLength": 123768,
      "byteOffset": 139896,
      "byteStride": 12,
      "name": "floatBufferViews",
      "target": 34962
    }
  ],
  "buffers": [
    {
      "byteLength": 263664,
      "uri": "scene.bin"
    }
  ],
  "extensionsRequired": [
    "KHR_materials_pbrSpecularGlossiness"
  ],
  "extensionsUsed": [
    "KHR_materials_pbrSpecularGlossiness"
  ],
  "images": [
    {
      "uri": "textures/Material_diffuse.png"
    }
  ],
  "materials": [
    {
      "doubleSided": true,
      "extensions": {
        "KHR_materials_pbrSpecularGlossiness": {
          "diffuseFactor": [
            0.0,
            0.0,
            0.0,
            1.0
          ],
          "glossinessFactor": 0.0,
          "specularFactor": [
            0.0,
            0.0,
            0.0
          ]
        }
      },
      "name": "Material.004"
    },
    {
      "doubleSided": true,
      "extensions": {
        "KHR_materials_pbrSpecularGlossiness": {
          "diffuseFactor": [
            0.008634931449910132,
            0.008634931449910132,
            0.008634931449910132,
            1.0
          ],
          "diffuseTexture": {
            "index": 0
          },
          "glossinessFactor": 0.8877457051386967,
          "specularFactor": [
            0.0,
            0.0,
            0.0
          ]
        }
      },
      "name": "Material"
    }
  ],
  "meshes": [
    {
      "name": "Cube_Material.004_0",
      "primitives": [
        {
          "attributes": {
            "NORMAL": 1,
            "POSITION": 0,
            "TEXCOORD_0": 2
          },
          "indices": 3,
          "material": 0,
          "mode": 4
        }
      ]
    },
    {
      "name": "Cube_Material_0",
      "primitives": [
        {
          "attributes": {
            "NORMAL": 5,
            "POSITION": 4,
            "TEXCOORD_0": 6
          },
          "indices": 7,
          "material": 1,
          "mode": 4
        }
      ]
    }
  ],
  "nodes": [
    {
      "children": [
        1
      ],
      "matrix": [
        1.0,
        0.0,
        0.0,
        0.0,
        0.0,
        2.220446049250313e-16,
        -1.0,
        0.0,
        0.0,
        1.0,
        2.220446049250313e-16,
        0.0,
        0.0,
        0.0,
        0.0,
        1.0
      ],
      "name": "Sketchfab_model"
    },
    {
      "children": [
        2
      ],
      "matrix": [
        0.009999999776482582,
        0.0,
        0.0,
        0.0,
        0.0,
        0.0,
        0.009999999776482582,
        0.0,
        0.0,
        -0.009999999776482582,
        0.0,
        0.0,
        0.0,
        0.0,
        0.0,
        1.0
      ],
      "name": "speedstacks timer.fbx"
    },
    {
      "children": [
        3,
        6,
        8
      ],
      "name": "RootNode"
    },
    {
      "children": [
        4
      ],
      "matrix": [
        -29.086477364379697,
        -5.518905590722295,
        -95.51711910171437,
        0.0,
        56.63932069164076,
        79.46722539115298,
        -21.839126361216156,
        0.0,
        77.11007920637729,
        -60.452475336912016,
        -19.988344364310564,
        0.0,
        407.6245422363281,
        590.38623046875,
        -100.54539489746094,
        1.0
      ],
      "name": "Light"
    },
    {
      "children": [
        5
      ],
      "matrix": [
        1.0,
        0.0,
        0.0,
        0.0,
        0.0,
        2.220446049250313e-16,
        1.0,
        0.0,
        0.0,
        -1.0,
        2.220446049250313e-16,
        0.0,
        0.0,
        0.0,
        0.0,
        1.0
      ],
      "name": "Object_4"
    },
    {
      "name": "Object_5"
    },
    {
      "children": [
        7
      ],
      "matrix": [
        -65.1558127516791,
        -44.52713915455176,
        -61.417049289096546,
        0.0,
        -32.401349332924404,
        89.53957282709818,
        -30.5420854760369,
        0.0,
        68.59207001076241,
        8.666908837178815e-06,
        -72.76761921184274,
        0.0,
        735.88916015625,
        495.8309326171875,
        692.5791015625,
        1.0
      ],
      "name": "Camera"
    },
    {
      "name": "Object_7"
    },
    {
      "children": [
        9,
        10
      ],
      "matrix": [
        50.64372253417969,
        0.0,
        0.0,
        0.0,
        0.0,
        -8.250909682199957e-06,
        -50.64372253417902,
        0.0,
        0.0,
        50.64372253417902,
        -8.250909682199957e-06,
        0.0,
        0.0,
        0.0,
        0.0,
        1.0
      ],
      "name": "Cube"
    },
    {
      "mesh": 0,
      "name": "Cube_Material.004_0"
    },
    {
      "mesh": 1,
      "name": "Cube_Material_0"
    }
  ],
  "samplers": [
    {
      "magFilter": 9729,
      "minFilter": 9987,
      "wrapS": 10497,
      "wrapT": 10497
    }
  ],
  "scene": 0,
  "scenes": [
    {
      "name": "Sketchfab_Scene",
      "nodes": [
        0
      ]
    }
  ],
  "textures": [
    {
      "sampler": 0,
      "source": 0
    }
  ]
}
